<svg height="49" viewBox="0 0 200 49" width="200" xmlns="http://www.w3.org/2000/svg"><g fill="none" fill-rule="evenodd"><path d="m34.792 26.033a10.808 10.808 0 0 0 -3.41-2.214 11.027 11.027 0 0 0 -4.16-.819c-3.259 0-5.966 1.204-8.222 3.66-1.053-1.253-2.306-2.167-3.71-2.745-1.403-.626-2.907-.915-4.512-.915-2.205 0-4.16.53-5.865 1.637a2.184 2.184 0 0 0 -.902-1.204 2.731 2.731 0 0 0 -1.504-.433c-.702 0-1.304.24-1.755.722-.501.482-.752 1.06-.752 1.685v21.09c0 .673.25 1.251.752 1.733a2.513 2.513 0 0 0 1.805.722c.702 0 1.303-.24 1.754-.722.502-.482.752-1.06.752-1.734v-13.144c0-.77.15-1.445.452-2.119.3-.674.701-1.252 1.253-1.733a6.483 6.483 0 0 1 1.805-1.204 5.801 5.801 0 0 1 2.205-.433c.802 0 1.504.144 2.206.433.702.29 1.304.674 1.805 1.204.501.481.902 1.06 1.253 1.733.301.674.451 1.397.451 2.119v13.192c0 .675.251 1.252.752 1.734a2.513 2.513 0 0 0 1.805.722c.702 0 1.304-.24 1.755-.722.501-.482.752-1.06.752-1.734v-13.192c0-.77.15-1.445.45-2.119.302-.674.703-1.252 1.254-1.733.502-.481 1.153-.867 1.805-1.204a5.801 5.801 0 0 1 2.206-.433c.802 0 1.554.144 2.256.433.702.29 1.303.674 1.804 1.204.502.481.903 1.107 1.204 1.733.3.674.45 1.348.45 2.119v13.192c0 .675.251 1.252.703 1.734.501.481 1.052.722 1.804.722.702 0 1.304-.24 1.755-.722.501-.482.752-1.06.752-1.734v-13.192a9.88 9.88 0 0 0 -.852-3.996 12.281 12.281 0 0 0 -2.356-3.323zm27.865-3.033c-.669 0-1.243.241-1.72.724-.479.482-.718 1.06-.718 1.688v11.48c0 1.013-.191 1.93-.574 2.798a8.452 8.452 0 0 1 -1.53 2.316c-.669.675-1.434 1.206-2.294 1.543a6.807 6.807 0 0 1 -2.773.579 7.032 7.032 0 0 1 -2.82-.579 8.366 8.366 0 0 1 -2.296-1.543c-.67-.676-1.147-1.448-1.53-2.316a7.036 7.036 0 0 1 -.573-2.846v-11.432c0-.675-.24-1.254-.717-1.688-.479-.483-1.052-.724-1.674-.724-.67 0-1.243.241-1.72.724-.479.482-.718 1.06-.718 1.688v11.48c0 1.64.335 3.232.956 4.68a12.39 12.39 0 0 0 2.582 3.858 11.74 11.74 0 0 0 3.825 2.605c1.434.627 3.012.965 4.637.965 1.386 0 2.677-.193 3.825-.579a9.953 9.953 0 0 0 3.346-1.833c0 .675.24 1.206.67 1.688.43.483 1.004.676 1.72.676.67 0 1.244-.241 1.722-.724.478-.482.717-1.061.717-1.688v-21.128c0-.675-.239-1.254-.717-1.688-.383-.483-.956-.724-1.626-.724zm25.569 14.037c-.527-.579-1.534-1.11-3.02-1.736l-10.788-3.57c-.384-.145-.623-.434-.623-.868s.143-.772.383-1.013c1.343-1.35 3.069-2.026 5.322-2.026s4.171.772 5.705 2.363c.336.338.672.627 1.007.917.336.29.767.434 1.247.434.671 0 1.246-.241 1.726-.675.431-.434.671-1.013.671-1.737 0-.579-.144-1.061-.48-1.447-2.731-3.087-6.039-4.679-9.876-4.679-1.247 0-2.493.193-3.788.53-1.246.387-2.397.869-3.356 1.544a8.993 8.993 0 0 0 -2.445 2.412c-.623.965-.911 2.026-.911 3.184 0 1.592.575 2.99 1.774 4.196.575.58 1.582 1.158 3.02 1.737l10.788 3.57c.432.192.623.482.623.916 0 .386-.095.675-.335.965-1.343 1.399-3.117 2.074-5.322 2.074-2.253 0-4.171-.772-5.753-2.364-.288-.289-.624-.578-.96-.868-.335-.29-.767-.434-1.294-.434-.671 0-1.246.241-1.726.675-.431.434-.671 1.013-.671 1.737 0 .579.192 1.061.527 1.495 2.733 3.087 5.993 4.631 9.877 4.631 1.247 0 2.493-.193 3.74-.53a11.252 11.252 0 0 0 3.356-1.544 8.993 8.993 0 0 0 2.445-2.412c.623-.965.911-2.026.911-3.184-.048-1.736-.623-3.135-1.774-4.293zm7.774-22.037c-.814 0-1.525.305-2.136.864-.61.61-.864 1.272-.864 2.136 0 .814.305 1.525.864 2.136.61.61 1.272.864 2.136.864.814 0 1.525-.305 2.136-.864.61-.61.864-1.272.864-2.136 0-.814-.305-1.525-.864-2.136-.56-.559-1.272-.864-2.136-.864zm.5 8c-.7 0-1.3.24-1.75.722-.5.482-.75 1.06-.75 1.734v21.088c0 .675.25 1.252.75 1.734.5.481 1.1.722 1.75.722.7 0 1.3-.24 1.75-.722.5-.482.75-1.06.75-1.734v-21.137c0-.674-.25-1.251-.75-1.733-.45-.433-1.05-.674-1.75-.674zm12.595 7.152a8.1 8.1 0 0 1 2.572-1.74c1-.434 2-.628 3.143-.628 1 0 1.952.194 2.809.532a8.09 8.09 0 0 1 2.429 1.498c.476.387 1 .58 1.571.58.667 0 1.238-.242 1.714-.677a2.553 2.553 0 0 0 .667-1.74c0-.724-.286-1.352-.81-1.836-2.333-2.126-5.142-3.141-8.38-3.141-3.524 0-6.572 1.257-9.048 3.818-2.524 2.561-3.762 5.606-3.762 9.182s1.238 6.67 3.762 9.182c2.524 2.561 5.524 3.818 9.048 3.818 3.19 0 6-1.063 8.38-3.141.524-.532.762-1.112.762-1.788 0-.677-.238-1.257-.666-1.74-.429-.435-1-.677-1.715-.677-.571 0-1.095.194-1.523.532a8.09 8.09 0 0 1 -2.429 1.498c-.857.338-1.81.483-2.81.483-1.095 0-2.142-.193-3.142-.628s-1.81-1.015-2.572-1.74c-.714-.725-1.285-1.595-1.714-2.61-.429-1.014-.62-2.03-.62-3.189 0-1.112.191-2.175.62-3.19.429-1.063 1-1.933 1.714-2.658z" fill="#fff"/><path d="m149.083.857-.083.143c.292-.5.625-.857 1-1-.333.071-.625.357-.917.857zm1.917-.857c.364.23.682.538 1 1-.318-.462-.636-.77-1-1zm8.243 14c.757 0 1.406-.212 1.946-.742s.811-1.114.811-1.856c0-.743-.216-1.38-.757-1.91l-3.513-3.606-5.73-5.886c.54.477.703 1.167.703 1.91v6.522l1.08 1.113 3.514 3.607c.54.583 1.19.848 1.946.848z" fill="#c62d44"/><path d="m152.34.748c-.3-.3-.652-.549-1.103-.648h-.05c-.151-.05-.302-.05-.452-.1h-.251-.602c-.452.1-.853.349-1.204.698-.05.05-.05.1-.1.1-.402.448-.603.997-.603 1.645v22.68c-2.458-1.944-5.268-2.94-8.479-2.94-3.712 0-6.923 1.295-9.532 3.937-2.66 2.642-3.964 5.782-3.964 9.471s1.304 6.879 3.964 9.471c2.659 2.642 5.82 3.938 9.532 3.938 3.713 0 6.874-1.296 9.533-3.938 2.66-2.592 3.964-5.732 3.964-9.471v-32.998c.05-.749-.151-1.347-.653-1.845zm25.695 26.07c-2.66-2.561-5.871-3.818-9.535-3.818-3.714 0-6.926 1.257-9.535 3.818-2.66 2.561-3.965 5.606-3.965 9.182s1.305 6.67 3.965 9.182c2.66 2.561 5.821 3.818 9.535 3.818s6.875-1.257 9.535-3.818c2.66-2.512 3.965-5.557 3.965-9.182 0-1.788-.351-3.48-1.004-4.978-.652-1.546-1.656-2.948-2.96-4.204zm21.215 17.938c-.535-.494-1.123-.74-1.873-.74-3.425 0-5.138-1.58-5.138-4.738v-11.894h3.212c.749 0 1.338-.246 1.873-.74.535-.493.75-1.086.75-1.776 0-.691-.268-1.284-.75-1.728-.535-.493-1.124-.74-1.873-.74h-3.212v-8.932c0-.691-.267-1.284-.802-1.728a2.708 2.708 0 0 0 -1.874-.74c-.749 0-1.391.247-1.926.74-.536.494-.803 1.086-.803 1.728v8.932h-3.211c-.75 0-1.338.247-1.874.74-.535.494-.749 1.086-.749 1.728 0 .69.268 1.283.75 1.776.535.494 1.123.74 1.873.74h3.21v11.943c0 6.465 3.533 9.673 10.544 9.673.75 0 1.338-.247 1.874-.74.535-.494.749-1.086.749-1.777 0-.69-.268-1.234-.75-1.727z" fill="#e93d50"/></g></svg>